<svg xmlns="http://www.w3.org/2000/svg" width="134" height="34" viewBox="0 0 134 34" version="1.1"><path d="M 24 16.500 C 24 23.389, 24.284 25, 25.500 25 C 26.583 25, 27 23.889, 27 21 L 27 17 31 17 L 35 17 35 21 C 35 23.889, 35.417 25, 36.500 25 C 37.716 25, 38 23.389, 38 16.500 C 38 9.611, 37.716 8, 36.500 8 C 35.452 8, 35 9.056, 35 11.500 C 35 14.917, 34.905 15, 31 15 C 27.095 15, 27 14.917, 27 11.500 C 27 9.056, 26.548 8, 25.500 8 C 24.284 8, 24 9.611, 24 16.500 M 41.823 16.498 C 42.072 23.043, 42.475 25, 43.573 25 C 44.697 25, 45 23.194, 45 16.500 C 45 9.072, 44.779 8, 43.250 7.998 C 41.695 7.996, 41.536 8.943, 41.823 16.498 M 49.046 9.445 C 46.620 12.368, 48.209 15.403, 53 17 C 58.386 18.795, 59.538 20.070, 57.290 21.750 C 54.927 23.517, 53.243 23.307, 51.268 21 C 49.460 18.889, 47 18.312, 47 20 C 47 22.420, 51.117 25, 54.977 25 C 58.086 25, 59.302 24.469, 60.548 22.567 C 62.862 19.036, 61.047 16.292, 55.468 14.888 C 50.867 13.729, 49.580 11.586, 52.859 10.545 C 54.988 9.869, 58 10.784, 58 12.107 C 58 12.598, 58.675 13, 59.500 13 C 61.441 13, 61.411 11.554, 59.429 9.571 C 57.453 7.595, 50.649 7.513, 49.046 9.445" stroke="none" fill="#040404" fill-rule="evenodd"/><path d="M 6.813 10.250 C 6.538 13.108, 6.108 13.538, 3.250 13.813 C 0.410 14.087, 0 14.489, 0 17 C 0 19.511, 0.410 19.913, 3.250 20.187 C 6.108 20.462, 6.538 20.892, 6.813 23.750 C 7.087 26.590, 7.489 27, 10 27 C 12.511 27, 12.913 26.590, 13.187 23.750 C 13.462 20.892, 13.892 20.462, 16.750 20.187 C 19.590 19.913, 20 19.511, 20 17 C 20 14.489, 19.590 14.087, 16.750 13.813 C 13.892 13.538, 13.462 13.108, 13.187 10.250 C 12.913 7.410, 12.511 7, 10 7 C 7.489 7, 7.087 7.410, 6.813 10.250" stroke="none" fill="#0464fc" fill-rule="evenodd"/></svg>